<?xml version="1.0" standalone="no"?>
<!DOCTYPE svg PUBLIC "-//W3C//DTD SVG 20010904//EN"
 "http://www.w3.org/TR/2001/REC-SVG-20010904/DTD/svg10.dtd">
<svg version="1.0" xmlns="http://www.w3.org/2000/svg"
 width="1030.000000pt" height="1280.000000pt" viewBox="0 0 1030.000000 1280.000000"
 preserveAspectRatio="xMidYMid meet">
<metadata>
Created by potrace 1.15, written by Peter Selinger 2001-2017
</metadata>
<g transform="translate(0.000000,1280.000000) scale(0.100000,-0.100000)"
fill="#000000" stroke="none">
<path d="M8646 12790 c-60 -16 -149 -67 -194 -113 -71 -72 -2120 -2778 -2157
-2848 -100 -191 -80 -414 53 -578 19 -24 247 -213 506 -421 488 -391 506 -408
555 -521 50 -114 66 -279 42 -430 -28 -171 -113 -399 -240 -644 -170 -327
-201 -370 -1122 -1576 l-874 -1147 -225 -237 c-442 -467 -720 -700 -955 -801
-87 -38 -93 -39 -205 -39 -123 0 -172 14 -246 70 -17 13 -201 233 -407 488
-206 255 -390 476 -408 492 -163 138 -410 119 -560 -41 -53 -57 -2097 -2749
-2136 -2813 -112 -186 -89 -448 55 -608 31 -35 842 -641 1021 -763 282 -192
781 -290 1278 -250 1399 114 2984 1146 4542 2960 1197 1393 2177 2928 2733
4280 351 853 541 1627 589 2400 49 785 -113 1575 -418 2037 -50 76 -821 973
-876 1019 -61 52 -150 86 -235 90 -42 2 -94 -1 -116 -6z"/>
</g>
</svg>
